<mxfile host="app.diagrams.net" agent="Mozilla/5.0 (Windows NT 10.0; Win64; x64; rv:142.0) Gecko/20100101 Firefox/142.0" version="28.1.2">
  <diagram name="Page-1" id="LfUJqKRny8_usZMHoBGu">
    <mxGraphModel dx="1392" dy="1730" grid="1" gridSize="10" guides="1" tooltips="1" connect="1" arrows="1" fold="1" page="1" pageScale="1" pageWidth="850" pageHeight="1100" math="0" shadow="0">
      <root>
        <mxCell id="0" />
        <mxCell id="1" parent="0" />
        <mxCell id="0wcFvrKXqNZSRROoV2Sp-3" value="" style="edgeStyle=orthogonalEdgeStyle;rounded=0;orthogonalLoop=1;jettySize=auto;html=1;" edge="1" parent="1" source="0wcFvrKXqNZSRROoV2Sp-1" target="0wcFvrKXqNZSRROoV2Sp-2">
          <mxGeometry relative="1" as="geometry" />
        </mxCell>
        <mxCell id="0wcFvrKXqNZSRROoV2Sp-21" value="" style="edgeStyle=orthogonalEdgeStyle;rounded=0;orthogonalLoop=1;jettySize=auto;html=1;" edge="1" parent="1" source="0wcFvrKXqNZSRROoV2Sp-1" target="0wcFvrKXqNZSRROoV2Sp-20">
          <mxGeometry relative="1" as="geometry" />
        </mxCell>
        <mxCell id="0wcFvrKXqNZSRROoV2Sp-23" style="edgeStyle=orthogonalEdgeStyle;rounded=0;orthogonalLoop=1;jettySize=auto;html=1;" edge="1" parent="1" source="0wcFvrKXqNZSRROoV2Sp-1" target="0wcFvrKXqNZSRROoV2Sp-22">
          <mxGeometry relative="1" as="geometry">
            <Array as="points">
              <mxPoint x="365" y="270" />
              <mxPoint x="520" y="270" />
            </Array>
          </mxGeometry>
        </mxCell>
        <mxCell id="0wcFvrKXqNZSRROoV2Sp-1" value="Rheumatoid Arthritis" style="rounded=0;whiteSpace=wrap;html=1;" vertex="1" parent="1">
          <mxGeometry x="305" y="300" width="120" height="60" as="geometry" />
        </mxCell>
        <mxCell id="0wcFvrKXqNZSRROoV2Sp-5" style="edgeStyle=orthogonalEdgeStyle;rounded=0;orthogonalLoop=1;jettySize=auto;html=1;entryX=0.5;entryY=0;entryDx=0;entryDy=0;" edge="1" parent="1" source="0wcFvrKXqNZSRROoV2Sp-2" target="0wcFvrKXqNZSRROoV2Sp-4">
          <mxGeometry relative="1" as="geometry" />
        </mxCell>
        <mxCell id="0wcFvrKXqNZSRROoV2Sp-2" value="Pathophysiology" style="rounded=0;whiteSpace=wrap;html=1;" vertex="1" parent="1">
          <mxGeometry x="305" y="430" width="120" height="60" as="geometry" />
        </mxCell>
        <mxCell id="0wcFvrKXqNZSRROoV2Sp-15" value="" style="edgeStyle=orthogonalEdgeStyle;rounded=0;orthogonalLoop=1;jettySize=auto;html=1;" edge="1" parent="1" source="0wcFvrKXqNZSRROoV2Sp-4" target="0wcFvrKXqNZSRROoV2Sp-14">
          <mxGeometry relative="1" as="geometry" />
        </mxCell>
        <mxCell id="0wcFvrKXqNZSRROoV2Sp-4" value="Synovium" style="rounded=0;whiteSpace=wrap;html=1;" vertex="1" parent="1">
          <mxGeometry x="305" y="540" width="120" height="60" as="geometry" />
        </mxCell>
        <mxCell id="0wcFvrKXqNZSRROoV2Sp-9" value="" style="edgeStyle=orthogonalEdgeStyle;rounded=0;orthogonalLoop=1;jettySize=auto;html=1;" edge="1" parent="1" source="0wcFvrKXqNZSRROoV2Sp-8" target="0wcFvrKXqNZSRROoV2Sp-4">
          <mxGeometry relative="1" as="geometry" />
        </mxCell>
        <mxCell id="0wcFvrKXqNZSRROoV2Sp-8" value="hyaluronic acid to lubricate space" style="rounded=0;whiteSpace=wrap;html=1;" vertex="1" parent="1">
          <mxGeometry x="305" y="650" width="120" height="60" as="geometry" />
        </mxCell>
        <mxCell id="0wcFvrKXqNZSRROoV2Sp-11" value="" style="edgeStyle=orthogonalEdgeStyle;rounded=0;orthogonalLoop=1;jettySize=auto;html=1;" edge="1" parent="1" source="0wcFvrKXqNZSRROoV2Sp-10" target="0wcFvrKXqNZSRROoV2Sp-4">
          <mxGeometry relative="1" as="geometry" />
        </mxCell>
        <mxCell id="0wcFvrKXqNZSRROoV2Sp-10" value="result of inflamation" style="rounded=0;whiteSpace=wrap;html=1;" vertex="1" parent="1">
          <mxGeometry x="500" y="540" width="120" height="60" as="geometry" />
        </mxCell>
        <mxCell id="0wcFvrKXqNZSRROoV2Sp-13" value="" style="edgeStyle=orthogonalEdgeStyle;rounded=0;orthogonalLoop=1;jettySize=auto;html=1;" edge="1" parent="1" source="0wcFvrKXqNZSRROoV2Sp-12" target="0wcFvrKXqNZSRROoV2Sp-10">
          <mxGeometry relative="1" as="geometry" />
        </mxCell>
        <mxCell id="0wcFvrKXqNZSRROoV2Sp-12" value="increased expression of TNF and IL-6" style="rounded=0;whiteSpace=wrap;html=1;" vertex="1" parent="1">
          <mxGeometry x="680" y="540" width="120" height="60" as="geometry" />
        </mxCell>
        <mxCell id="0wcFvrKXqNZSRROoV2Sp-14" value="synovial hypertrophy results into pannus" style="rounded=0;whiteSpace=wrap;html=1;" vertex="1" parent="1">
          <mxGeometry x="130" y="540" width="120" height="60" as="geometry" />
        </mxCell>
        <mxCell id="0wcFvrKXqNZSRROoV2Sp-17" value="" style="edgeStyle=orthogonalEdgeStyle;rounded=0;orthogonalLoop=1;jettySize=auto;html=1;" edge="1" parent="1" source="0wcFvrKXqNZSRROoV2Sp-16" target="0wcFvrKXqNZSRROoV2Sp-1">
          <mxGeometry relative="1" as="geometry" />
        </mxCell>
        <mxCell id="0wcFvrKXqNZSRROoV2Sp-16" value="example of Type III hypersensitivity" style="rounded=0;whiteSpace=wrap;html=1;" vertex="1" parent="1">
          <mxGeometry x="490" y="300" width="120" height="60" as="geometry" />
        </mxCell>
        <mxCell id="0wcFvrKXqNZSRROoV2Sp-19" value="" style="edgeStyle=orthogonalEdgeStyle;rounded=0;orthogonalLoop=1;jettySize=auto;html=1;" edge="1" parent="1" source="0wcFvrKXqNZSRROoV2Sp-18" target="0wcFvrKXqNZSRROoV2Sp-1">
          <mxGeometry relative="1" as="geometry">
            <Array as="points">
              <mxPoint x="365" y="410" />
            </Array>
          </mxGeometry>
        </mxCell>
        <mxCell id="0wcFvrKXqNZSRROoV2Sp-18" value="symmetric joint inflammation" style="rounded=0;whiteSpace=wrap;html=1;" vertex="1" parent="1">
          <mxGeometry x="130" y="410" width="120" height="60" as="geometry" />
        </mxCell>
        <mxCell id="0wcFvrKXqNZSRROoV2Sp-20" value="classically effects MCP and PIP joints" style="rounded=0;whiteSpace=wrap;html=1;" vertex="1" parent="1">
          <mxGeometry x="305" y="180" width="120" height="60" as="geometry" />
        </mxCell>
        <mxCell id="0wcFvrKXqNZSRROoV2Sp-22" value="untreated leads to ulnar deviation and swan neck defomaty" style="rounded=0;whiteSpace=wrap;html=1;" vertex="1" parent="1">
          <mxGeometry x="450" y="180" width="120" height="60" as="geometry" />
        </mxCell>
        <mxCell id="0wcFvrKXqNZSRROoV2Sp-25" style="edgeStyle=orthogonalEdgeStyle;rounded=0;orthogonalLoop=1;jettySize=auto;html=1;entryX=0;entryY=0.5;entryDx=0;entryDy=0;" edge="1" parent="1" source="0wcFvrKXqNZSRROoV2Sp-24" target="0wcFvrKXqNZSRROoV2Sp-1">
          <mxGeometry relative="1" as="geometry" />
        </mxCell>
        <mxCell id="0wcFvrKXqNZSRROoV2Sp-24" value="systemic complications" style="rounded=0;whiteSpace=wrap;html=1;" vertex="1" parent="1">
          <mxGeometry x="130" y="240" width="120" height="60" as="geometry" />
        </mxCell>
        <mxCell id="0wcFvrKXqNZSRROoV2Sp-27" style="edgeStyle=orthogonalEdgeStyle;rounded=0;orthogonalLoop=1;jettySize=auto;html=1;entryX=0;entryY=0.5;entryDx=0;entryDy=0;" edge="1" parent="1" source="0wcFvrKXqNZSRROoV2Sp-26" target="0wcFvrKXqNZSRROoV2Sp-24">
          <mxGeometry relative="1" as="geometry" />
        </mxCell>
        <mxCell id="0wcFvrKXqNZSRROoV2Sp-26" value="Baker&#39;s cyst" style="rounded=0;whiteSpace=wrap;html=1;" vertex="1" parent="1">
          <mxGeometry x="-40" y="190" width="120" height="60" as="geometry" />
        </mxCell>
        <mxCell id="0wcFvrKXqNZSRROoV2Sp-29" style="edgeStyle=orthogonalEdgeStyle;rounded=0;orthogonalLoop=1;jettySize=auto;html=1;" edge="1" parent="1" source="0wcFvrKXqNZSRROoV2Sp-28" target="0wcFvrKXqNZSRROoV2Sp-24">
          <mxGeometry relative="1" as="geometry" />
        </mxCell>
        <mxCell id="0wcFvrKXqNZSRROoV2Sp-28" value="inflamation of the cirohsa (paracardial disease)" style="rounded=0;whiteSpace=wrap;html=1;" vertex="1" parent="1">
          <mxGeometry x="-40" y="280" width="120" height="60" as="geometry" />
        </mxCell>
        <mxCell id="0wcFvrKXqNZSRROoV2Sp-31" style="edgeStyle=orthogonalEdgeStyle;rounded=0;orthogonalLoop=1;jettySize=auto;html=1;" edge="1" parent="1" source="0wcFvrKXqNZSRROoV2Sp-30" target="0wcFvrKXqNZSRROoV2Sp-24">
          <mxGeometry relative="1" as="geometry" />
        </mxCell>
        <mxCell id="0wcFvrKXqNZSRROoV2Sp-30" value="subcutaneous nodules" style="rounded=0;whiteSpace=wrap;html=1;" vertex="1" parent="1">
          <mxGeometry x="50" y="110" width="120" height="60" as="geometry" />
        </mxCell>
        <mxCell id="0wcFvrKXqNZSRROoV2Sp-33" style="edgeStyle=orthogonalEdgeStyle;rounded=0;orthogonalLoop=1;jettySize=auto;html=1;" edge="1" parent="1" source="0wcFvrKXqNZSRROoV2Sp-32" target="0wcFvrKXqNZSRROoV2Sp-24">
          <mxGeometry relative="1" as="geometry" />
        </mxCell>
        <mxCell id="0wcFvrKXqNZSRROoV2Sp-32" value="Effects eye: episcleritis, scleritis, uveitis" style="rounded=0;whiteSpace=wrap;html=1;" vertex="1" parent="1">
          <mxGeometry x="185" y="110" width="120" height="60" as="geometry" />
        </mxCell>
        <mxCell id="0wcFvrKXqNZSRROoV2Sp-35" value="" style="edgeStyle=orthogonalEdgeStyle;rounded=0;orthogonalLoop=1;jettySize=auto;html=1;" edge="1" parent="1" source="0wcFvrKXqNZSRROoV2Sp-34" target="0wcFvrKXqNZSRROoV2Sp-32">
          <mxGeometry relative="1" as="geometry" />
        </mxCell>
        <mxCell id="0wcFvrKXqNZSRROoV2Sp-34" value="sjogrens syndrome" style="rounded=0;whiteSpace=wrap;html=1;" vertex="1" parent="1">
          <mxGeometry x="185" y="10" width="120" height="60" as="geometry" />
        </mxCell>
        <mxCell id="0wcFvrKXqNZSRROoV2Sp-37" value="" style="edgeStyle=orthogonalEdgeStyle;rounded=0;orthogonalLoop=1;jettySize=auto;html=1;" edge="1" parent="1" source="0wcFvrKXqNZSRROoV2Sp-36" target="0wcFvrKXqNZSRROoV2Sp-24">
          <mxGeometry relative="1" as="geometry" />
        </mxCell>
        <mxCell id="0wcFvrKXqNZSRROoV2Sp-36" value="osteporosis" style="rounded=0;whiteSpace=wrap;html=1;" vertex="1" parent="1">
          <mxGeometry x="130" y="330" width="120" height="60" as="geometry" />
        </mxCell>
        <mxCell id="0wcFvrKXqNZSRROoV2Sp-39" style="edgeStyle=orthogonalEdgeStyle;rounded=0;orthogonalLoop=1;jettySize=auto;html=1;entryX=1;entryY=0.75;entryDx=0;entryDy=0;" edge="1" parent="1" source="0wcFvrKXqNZSRROoV2Sp-38" target="0wcFvrKXqNZSRROoV2Sp-1">
          <mxGeometry relative="1" as="geometry">
            <Array as="points">
              <mxPoint x="548" y="400" />
              <mxPoint x="548" y="370" />
              <mxPoint x="425" y="370" />
            </Array>
          </mxGeometry>
        </mxCell>
        <mxCell id="0wcFvrKXqNZSRROoV2Sp-38" value="Tests" style="rounded=0;whiteSpace=wrap;html=1;" vertex="1" parent="1">
          <mxGeometry x="700" y="370" width="120" height="60" as="geometry" />
        </mxCell>
        <mxCell id="0wcFvrKXqNZSRROoV2Sp-41" value="" style="edgeStyle=orthogonalEdgeStyle;rounded=0;orthogonalLoop=1;jettySize=auto;html=1;" edge="1" parent="1" source="0wcFvrKXqNZSRROoV2Sp-40" target="0wcFvrKXqNZSRROoV2Sp-38">
          <mxGeometry relative="1" as="geometry" />
        </mxCell>
        <mxCell id="0wcFvrKXqNZSRROoV2Sp-40" value="rheumatod factor" style="rounded=0;whiteSpace=wrap;html=1;" vertex="1" parent="1">
          <mxGeometry x="700" y="250" width="120" height="60" as="geometry" />
        </mxCell>
        <mxCell id="0wcFvrKXqNZSRROoV2Sp-43" style="edgeStyle=orthogonalEdgeStyle;rounded=0;orthogonalLoop=1;jettySize=auto;html=1;entryX=0.5;entryY=0;entryDx=0;entryDy=0;" edge="1" parent="1" source="0wcFvrKXqNZSRROoV2Sp-42" target="0wcFvrKXqNZSRROoV2Sp-40">
          <mxGeometry relative="1" as="geometry" />
        </mxCell>
        <mxCell id="0wcFvrKXqNZSRROoV2Sp-42" value="poor specificity pos in multiple cases" style="rounded=0;whiteSpace=wrap;html=1;" vertex="1" parent="1">
          <mxGeometry x="630" y="150" width="120" height="60" as="geometry" />
        </mxCell>
        <mxCell id="0wcFvrKXqNZSRROoV2Sp-45" value="" style="edgeStyle=orthogonalEdgeStyle;rounded=0;orthogonalLoop=1;jettySize=auto;html=1;" edge="1" parent="1" source="0wcFvrKXqNZSRROoV2Sp-44" target="0wcFvrKXqNZSRROoV2Sp-38">
          <mxGeometry relative="1" as="geometry" />
        </mxCell>
        <mxCell id="0wcFvrKXqNZSRROoV2Sp-44" value="citrullinated peptides" style="rounded=0;whiteSpace=wrap;html=1;" vertex="1" parent="1">
          <mxGeometry x="870" y="410" width="120" height="60" as="geometry" />
        </mxCell>
        <mxCell id="0wcFvrKXqNZSRROoV2Sp-47" value="" style="edgeStyle=orthogonalEdgeStyle;rounded=0;orthogonalLoop=1;jettySize=auto;html=1;" edge="1" parent="1" source="0wcFvrKXqNZSRROoV2Sp-46" target="0wcFvrKXqNZSRROoV2Sp-38">
          <mxGeometry relative="1" as="geometry" />
        </mxCell>
        <mxCell id="0wcFvrKXqNZSRROoV2Sp-46" value="elevated CRP and ESR" style="rounded=0;whiteSpace=wrap;html=1;" vertex="1" parent="1">
          <mxGeometry x="700" y="460" width="120" height="60" as="geometry" />
        </mxCell>
        <mxCell id="0wcFvrKXqNZSRROoV2Sp-49" style="edgeStyle=orthogonalEdgeStyle;rounded=0;orthogonalLoop=1;jettySize=auto;html=1;entryX=1;entryY=0.5;entryDx=0;entryDy=0;" edge="1" parent="1" source="0wcFvrKXqNZSRROoV2Sp-48" target="0wcFvrKXqNZSRROoV2Sp-38">
          <mxGeometry relative="1" as="geometry" />
        </mxCell>
        <mxCell id="0wcFvrKXqNZSRROoV2Sp-48" value="HLA-DL4" style="rounded=0;whiteSpace=wrap;html=1;" vertex="1" parent="1">
          <mxGeometry x="870" y="320" width="120" height="60" as="geometry" />
        </mxCell>
        <mxCell id="0wcFvrKXqNZSRROoV2Sp-51" style="edgeStyle=orthogonalEdgeStyle;rounded=0;orthogonalLoop=1;jettySize=auto;html=1;entryX=1;entryY=0.25;entryDx=0;entryDy=0;" edge="1" parent="1" source="0wcFvrKXqNZSRROoV2Sp-50" target="0wcFvrKXqNZSRROoV2Sp-1">
          <mxGeometry relative="1" as="geometry">
            <Array as="points">
              <mxPoint x="590" y="290" />
              <mxPoint x="425" y="290" />
            </Array>
          </mxGeometry>
        </mxCell>
        <mxCell id="0wcFvrKXqNZSRROoV2Sp-50" value="treatment" style="rounded=0;whiteSpace=wrap;html=1;" vertex="1" parent="1">
          <mxGeometry x="520" y="-20" width="120" height="60" as="geometry" />
        </mxCell>
        <mxCell id="0wcFvrKXqNZSRROoV2Sp-53" style="edgeStyle=orthogonalEdgeStyle;rounded=0;orthogonalLoop=1;jettySize=auto;html=1;" edge="1" parent="1" source="0wcFvrKXqNZSRROoV2Sp-52" target="0wcFvrKXqNZSRROoV2Sp-50">
          <mxGeometry relative="1" as="geometry">
            <mxPoint x="490" y="10" as="targetPoint" />
          </mxGeometry>
        </mxCell>
        <mxCell id="0wcFvrKXqNZSRROoV2Sp-52" value="NSAIDs" style="rounded=0;whiteSpace=wrap;html=1;" vertex="1" parent="1">
          <mxGeometry x="350" y="-25" width="120" height="70" as="geometry" />
        </mxCell>
        <mxCell id="0wcFvrKXqNZSRROoV2Sp-56" style="edgeStyle=orthogonalEdgeStyle;rounded=0;orthogonalLoop=1;jettySize=auto;html=1;entryX=0.5;entryY=0;entryDx=0;entryDy=0;" edge="1" parent="1" source="0wcFvrKXqNZSRROoV2Sp-54" target="0wcFvrKXqNZSRROoV2Sp-50">
          <mxGeometry relative="1" as="geometry" />
        </mxCell>
        <mxCell id="0wcFvrKXqNZSRROoV2Sp-54" value="Steroids" style="rounded=0;whiteSpace=wrap;html=1;" vertex="1" parent="1">
          <mxGeometry x="440" y="-140" width="120" height="60" as="geometry" />
        </mxCell>
        <mxCell id="0wcFvrKXqNZSRROoV2Sp-58" style="edgeStyle=orthogonalEdgeStyle;rounded=0;orthogonalLoop=1;jettySize=auto;html=1;" edge="1" parent="1" source="0wcFvrKXqNZSRROoV2Sp-57" target="0wcFvrKXqNZSRROoV2Sp-50">
          <mxGeometry relative="1" as="geometry" />
        </mxCell>
        <mxCell id="0wcFvrKXqNZSRROoV2Sp-57" value="Disease-modifying antirhematic drugs (DMARDs)" style="rounded=0;whiteSpace=wrap;html=1;" vertex="1" parent="1">
          <mxGeometry x="610" y="-140" width="120" height="60" as="geometry" />
        </mxCell>
        <mxCell id="0wcFvrKXqNZSRROoV2Sp-60" value="" style="edgeStyle=orthogonalEdgeStyle;rounded=0;orthogonalLoop=1;jettySize=auto;html=1;" edge="1" parent="1" source="0wcFvrKXqNZSRROoV2Sp-59" target="0wcFvrKXqNZSRROoV2Sp-57">
          <mxGeometry relative="1" as="geometry" />
        </mxCell>
        <mxCell id="0wcFvrKXqNZSRROoV2Sp-59" value="sulfasalazine" style="rounded=0;whiteSpace=wrap;html=1;" vertex="1" parent="1">
          <mxGeometry x="530" y="-260" width="120" height="60" as="geometry" />
        </mxCell>
        <mxCell id="0wcFvrKXqNZSRROoV2Sp-62" style="edgeStyle=orthogonalEdgeStyle;rounded=0;orthogonalLoop=1;jettySize=auto;html=1;" edge="1" parent="1" source="0wcFvrKXqNZSRROoV2Sp-61">
          <mxGeometry relative="1" as="geometry">
            <mxPoint x="670" y="-140" as="targetPoint" />
          </mxGeometry>
        </mxCell>
        <mxCell id="0wcFvrKXqNZSRROoV2Sp-61" value="leflunomide" style="rounded=0;whiteSpace=wrap;html=1;" vertex="1" parent="1">
          <mxGeometry x="670" y="-260" width="120" height="60" as="geometry" />
        </mxCell>
        <mxCell id="0wcFvrKXqNZSRROoV2Sp-64" style="edgeStyle=orthogonalEdgeStyle;rounded=0;orthogonalLoop=1;jettySize=auto;html=1;entryX=1;entryY=0.5;entryDx=0;entryDy=0;" edge="1" parent="1" source="0wcFvrKXqNZSRROoV2Sp-63" target="0wcFvrKXqNZSRROoV2Sp-57">
          <mxGeometry relative="1" as="geometry" />
        </mxCell>
        <mxCell id="0wcFvrKXqNZSRROoV2Sp-63" value="infliximab" style="rounded=0;whiteSpace=wrap;html=1;" vertex="1" parent="1">
          <mxGeometry x="780" y="-140" width="120" height="60" as="geometry" />
        </mxCell>
        <mxCell id="0wcFvrKXqNZSRROoV2Sp-66" value="" style="edgeStyle=orthogonalEdgeStyle;rounded=0;orthogonalLoop=1;jettySize=auto;html=1;" edge="1" parent="1" source="0wcFvrKXqNZSRROoV2Sp-65" target="0wcFvrKXqNZSRROoV2Sp-63">
          <mxGeometry relative="1" as="geometry" />
        </mxCell>
        <mxCell id="0wcFvrKXqNZSRROoV2Sp-65" value="PPD is recommended&amp;nbsp;" style="rounded=0;whiteSpace=wrap;html=1;" vertex="1" parent="1">
          <mxGeometry x="780" y="-40" width="120" height="60" as="geometry" />
        </mxCell>
        <mxCell id="0wcFvrKXqNZSRROoV2Sp-68" value="" style="edgeStyle=orthogonalEdgeStyle;rounded=0;orthogonalLoop=1;jettySize=auto;html=1;" edge="1" parent="1" source="0wcFvrKXqNZSRROoV2Sp-67" target="0wcFvrKXqNZSRROoV2Sp-63">
          <mxGeometry relative="1" as="geometry" />
        </mxCell>
        <mxCell id="0wcFvrKXqNZSRROoV2Sp-67" value="TNF-a inhibitors" style="rounded=0;whiteSpace=wrap;html=1;" vertex="1" parent="1">
          <mxGeometry x="960" y="-140" width="120" height="60" as="geometry" />
        </mxCell>
      </root>
    </mxGraphModel>
  </diagram>
</mxfile>
